<?xml version="1.0" standalone="no"?>
<!DOCTYPE svg PUBLIC "-//W3C//DTD SVG 20010904//EN"
 "http://www.w3.org/TR/2001/REC-SVG-20010904/DTD/svg10.dtd">
<svg version="1.0" xmlns="http://www.w3.org/2000/svg"
 width="568.000000pt" height="465.000000pt" viewBox="0 0 568.000000 465.000000"
 preserveAspectRatio="xMidYMid meet">

<g transform="translate(0.000000,465.000000) scale(0.100000,-0.100000)"
fill="#000000" stroke="none">
<path d="M722 4363 c-18 -8 -30 -18 -28 -21 3 -3 13 1 22 9 11 9 54 16 118 20
l101 6 -90 1 c-65 1 -99 -3 -123 -15z"/>
<path d="M1258 4373 c34 -2 90 -2 125 0 34 2 6 3 -63 3 -69 0 -97 -1 -62 -3z"/>
<path d="M1603 4373 c37 -2 96 -2 130 0 34 2 4 3 -68 3 -71 0 -99 -1 -62 -3z"/>
<path d="M1983 4373 c103 -2 271 -2 375 0 103 1 18 2 -188 2 -206 0 -291 -1
-187 -2z"/>
<path d="M3213 4373 c9 -2 23 -2 30 0 6 3 -1 5 -18 5 -16 0 -22 -2 -12 -5z"/>
<path d="M3653 4373 c9 -2 23 -2 30 0 6 3 -1 5 -18 5 -16 0 -22 -2 -12 -5z"/>
<path d="M3783 4373 c15 -2 39 -2 55 0 15 2 2 4 -28 4 -30 0 -43 -2 -27 -4z"/>
<path d="M3968 4373 c12 -2 32 -2 45 0 12 2 2 4 -23 4 -25 0 -35 -2 -22 -4z"/>
<path d="M4178 4373 c23 -2 61 -2 85 0 23 2 4 4 -43 4 -47 0 -66 -2 -42 -4z"/>
<path d="M4800 4370 c217 -3 396 -7 398 -8 2 -1 14 -14 27 -28 14 -15 25 -23
25 -17 0 5 -12 20 -26 34 l-26 24 -396 0 -397 1 395 -6z"/>
<path d="M671 4306 c-5 -12 -12 -92 -15 -177 l-5 -154 12 165 c7 91 16 171 20
178 5 6 6 12 2 12 -3 0 -10 -11 -14 -24z"/>
<path d="M5253 4240 c0 -36 2 -50 4 -32 2 17 2 47 0 65 -2 17 -4 3 -4 -33z"/>
<path d="M887 4192 c-20 -22 -22 -43 -5 -60 19 -19 45 -14 62 10 13 19 14 25
2 43 -18 27 -39 30 -59 7z"/>
<path d="M1202 4198 c-20 -20 -14 -66 9 -79 44 -23 99 39 68 77 -14 17 -61 18
-77 2z"/>
<path d="M5242 4108 l-2 -48 -572 -1 c-693 -1 -907 -4 -916 -13 -4 -4 328 -6
738 -4 l745 3 -1 -90 c-2 -90 -2 -90 7 25 5 63 8 129 6 145 -3 19 -4 12 -5
-17z"/>
<path d="M1068 4053 c221 -2 583 -2 805 0 221 1 40 2 -403 2 -443 0 -624 -1
-402 -2z"/>
<path d="M2403 4053 c70 -2 184 -2 255 0 70 1 12 3 -128 3 -140 0 -198 -2
-127 -3z"/>
<path d="M2868 4053 c34 -2 90 -2 125 0 34 2 6 3 -63 3 -69 0 -97 -1 -62 -3z"/>
<path d="M3083 4053 c15 -2 39 -2 55 0 15 2 2 4 -28 4 -30 0 -43 -2 -27 -4z"/>
<path d="M3243 4053 c32 -2 81 -2 110 0 29 2 3 3 -58 3 -60 0 -84 -1 -52 -3z"/>
<path d="M3448 4053 c23 -2 61 -2 85 0 23 2 4 4 -43 4 -47 0 -66 -2 -42 -4z"/>
<path d="M641 3925 c0 -16 -10 -172 -21 -345 -44 -679 -70 -1127 -69 -1175 1
-27 10 78 20 235 10 157 32 506 49 777 17 270 30 502 27 515 -3 19 -5 18 -6
-7z"/>
<path d="M4152 3854 c-74 -20 -98 -34 -174 -103 -119 -110 -148 -215 -84 -311
22 -33 30 -39 41 -30 11 9 14 5 17 -22 2 -25 8 -33 23 -33 15 0 21 8 23 33 2
17 7 32 13 32 5 0 9 7 9 15 0 10 -10 15 -30 15 -29 0 -30 2 -19 22 7 12 20 45
29 72 l18 49 20 -39 c11 -21 48 -73 82 -114 74 -90 102 -142 103 -190 1 -69
-13 -111 -55 -156 -36 -39 -38 -44 -19 -44 36 0 117 47 150 87 18 21 39 59 48
85 11 28 25 49 36 52 17 4 19 14 16 123 l-4 118 26 3 c14 2 37 -6 52 -18 52
-41 44 -135 -17 -187 l-32 -28 29 -89 30 -90 34 40 c64 75 130 179 149 234 28
82 25 181 -8 252 -80 174 -310 275 -506 222z"/>
<path d="M5223 3785 c0 -44 2 -61 4 -37 2 23 2 59 0 80 -2 20 -4 1 -4 -43z"/>
<path d="M1090 3757 c-147 -78 -159 -275 -20 -344 55 -28 101 -29 160 -2 56
25 86 53 111 102 11 21 27 37 37 37 9 0 30 10 45 23 22 17 30 34 36 80 4 31 7
57 6 57 -1 0 -19 -13 -40 -30 -21 -16 -47 -30 -57 -30 -24 0 -108 88 -108 113
0 28 -114 24 -170 -6z"/>
<path d="M5202 3485 c-7 -121 -20 -314 -27 -430 -8 -115 -14 -232 -13 -260 1
-59 8 26 38 491 12 187 20 358 18 380 -2 21 -9 -60 -16 -181z"/>
<path d="M4414 3458 c-4 -7 1 -17 14 -26 17 -11 19 -18 12 -37 -8 -22 -5 -35
11 -35 14 0 27 56 17 73 -14 25 -45 40 -54 25z"/>
<path d="M3958 3192 c-38 -17 -51 -42 -23 -42 22 0 95 39 95 50 0 14 -29 11
-72 -8z"/>
<path d="M1203 3115 c-3 -9 -3 -18 -1 -21 3 -3 8 4 11 16 6 23 -1 27 -10 5z"/>
<path d="M1980 3075 c-14 -8 -20 -14 -15 -14 6 0 21 6 35 14 14 8 21 14 15 14
-5 0 -21 -6 -35 -14z"/>
<path d="M1195 3051 c-3 -8 -3 -12 1 -8 4 4 12 3 18 -3 8 -6 12 -3 12 9 0 22
-23 23 -31 2z"/>
<path d="M1885 3039 c-27 -10 -37 -17 -21 -14 31 7 97 33 81 33 -5 0 -32 -8
-60 -19z"/>
<path d="M1270 3012 c8 -5 26 -13 40 -16 17 -5 20 -4 10 2 -8 5 -26 13 -40 16
-17 5 -20 4 -10 -2z"/>
<path d="M1078 3003 c7 -3 16 -2 19 1 4 3 -2 6 -13 5 -11 0 -14 -3 -6 -6z"/>
<path d="M1778 3003 c7 -3 16 -2 19 1 4 3 -2 6 -13 5 -11 0 -14 -3 -6 -6z"/>
<path d="M1038 2993 c7 -3 16 -2 19 1 4 3 -2 6 -13 5 -11 0 -14 -3 -6 -6z"/>
<path d="M1738 2993 c7 -3 16 -2 19 1 4 3 -2 6 -13 5 -11 0 -14 -3 -6 -6z"/>
<path d="M1358 2983 c6 -2 18 -2 25 0 6 3 1 5 -13 5 -14 0 -19 -2 -12 -5z"/>
<path d="M1683 2983 c9 -2 23 -2 30 0 6 3 -1 5 -18 5 -16 0 -22 -2 -12 -5z"/>
<path d="M1418 2973 c7 -3 16 -2 19 1 4 3 -2 6 -13 5 -11 0 -14 -3 -6 -6z"/>
<path d="M1463 2973 c9 -2 23 -2 30 0 6 3 -1 5 -18 5 -16 0 -22 -2 -12 -5z"/>
<path d="M1628 2973 c7 -3 16 -2 19 1 4 3 -2 6 -13 5 -11 0 -14 -3 -6 -6z"/>
<path d="M5136 2423 c-11 -175 -17 -325 -14 -333 2 -7 12 131 22 307 11 175
17 325 14 333 -2 7 -12 -131 -22 -307z"/>
<path d="M3996 2483 c-3 -4 -6 -9 -6 -13 0 -18 271 -105 284 -92 14 13 3 22
-36 32 -67 17 -160 47 -199 64 -20 8 -39 12 -43 9z"/>
<path d="M543 2280 c0 -41 2 -58 4 -37 2 20 2 54 0 75 -2 20 -4 3 -4 -38z"/>
<path d="M533 2125 c0 -44 2 -61 4 -37 2 23 2 59 0 80 -2 20 -4 1 -4 -43z"/>
<path d="M1673 2153 c9 -2 25 -2 35 0 9 3 1 5 -18 5 -19 0 -27 -2 -17 -5z"/>
<path d="M1743 2153 c9 -2 23 -2 30 0 6 3 -1 5 -18 5 -16 0 -22 -2 -12 -5z"/>
<path d="M1838 2153 c7 -3 16 -2 19 1 4 3 -2 6 -13 5 -11 0 -14 -3 -6 -6z"/>
<path d="M1918 2153 c6 -2 18 -2 25 0 6 3 1 5 -13 5 -14 0 -19 -2 -12 -5z"/>
<path d="M2073 2153 c9 -2 23 -2 30 0 6 3 -1 5 -18 5 -16 0 -22 -2 -12 -5z"/>
<path d="M2416 2153 c34 -6 62 -44 67 -88 l4 -40 1 41 c2 33 -4 47 -24 68 -15
14 -36 25 -48 25 l-21 -2 21 -4z"/>
<path d="M2670 2144 c-59 -25 -80 -104 -38 -144 21 -19 34 -20 310 -20 l287 0
33 29 c50 43 43 101 -16 134 -29 16 -537 17 -576 1z"/>
<path d="M874 2128 l-19 -23 23 19 c21 18 27 26 19 26 -2 0 -12 -10 -23 -22z"/>
<path d="M847 2093 c-4 -3 -7 -21 -7 -39 0 -41 43 -95 73 -93 22 2 22 2 0 6
-37 7 -65 52 -61 95 2 21 3 38 2 38 0 0 -4 -3 -7 -7z"/>
<path d="M5105 1907 c-4 -80 -5 -151 -3 -159 3 -7 8 56 12 140 4 85 5 156 3
158 -3 3 -8 -60 -12 -139z"/>
<path d="M517 1901 c-5 -79 -6 -145 -4 -148 7 -6 20 236 15 267 -2 14 -7 -40
-11 -119z"/>
<path d="M2460 2005 c-7 -9 -8 -15 -2 -15 5 0 12 7 16 15 3 8 4 15 2 15 -2 0
-9 -7 -16 -15z"/>
<path d="M2415 1970 c-16 -7 -17 -9 -3 -9 9 -1 20 4 23 9 7 11 7 11 -20 0z"/>
<path d="M2023 1953 c20 -2 54 -2 75 0 20 2 3 4 -38 4 -41 0 -58 -2 -37 -4z"/>
<path d="M2940 1833 l-125 -128 128 125 c118 116 132 130 124 130 -1 0 -58
-57 -127 -127z"/>
<path d="M3796 1710 c-35 -82 -40 -89 -58 -79 -11 6 -22 8 -25 6 -2 -3 5 -8
16 -12 24 -7 25 -11 10 -54 l-11 -31 -261 -2 -262 -2 257 -6 257 -5 -166 -394
c-91 -218 -161 -397 -156 -402 10 -10 250 -106 277 -111 15 -2 38 21 93 92 60
78 267 381 336 492 l17 27 63 -43 c34 -24 76 -51 92 -60 17 -9 39 -22 49 -29
165 -104 241 -149 354 -208 51 -27 110 -60 130 -73 20 -12 71 -42 112 -66 41
-24 92 -54 112 -67 21 -12 43 -23 50 -23 7 1 36 31 63 67 107 142 155 208 155
213 0 10 -181 173 -250 225 -36 27 -82 65 -103 85 l-39 35 -427 5 c-458 5
-452 5 -471 56 -5 12 -4 81 2 155 10 117 14 136 34 156 25 25 -6 23 367 26
l149 1 -6 35 c-3 20 -6 46 -6 59 l0 22 -358 0 -358 0 -38 -90z"/>
<path d="M3460 1765 c0 -7 61 -37 66 -33 2 3 -12 12 -31 21 -19 9 -35 15 -35
12z"/>
<path d="M3540 1725 c0 -3 36 -23 80 -45 44 -22 80 -38 80 -35 0 3 -36 23 -80
45 -44 22 -80 38 -80 35z"/>
<path d="M5091 1712 c-1 -18 -5 -22 -18 -18 -10 3 -31 2 -48 -2 -20 -6 7 -8
80 -9 76 0 93 2 56 6 -42 5 -56 11 -62 26 -7 19 -8 18 -8 -3z"/>
<path d="M502 1690 c0 -14 2 -19 5 -12 2 6 2 18 0 25 -3 6 -5 1 -5 -13z"/>
<path d="M2570 1463 l-235 -238 238 235 c220 218 242 240 234 240 -1 0 -108
-107 -237 -237z"/>
<path d="M4860 1689 c-27 -4 -20 -6 28 -7 34 0 62 3 62 6 0 9 -43 9 -90 1z"/>
<path d="M4738 1683 c7 -3 16 -2 19 1 4 3 -2 6 -13 5 -11 0 -14 -3 -6 -6z"/>
<path d="M4798 1683 c7 -3 16 -2 19 1 4 3 -2 6 -13 5 -11 0 -14 -3 -6 -6z"/>
<path d="M5238 1683 c12 -2 30 -2 40 0 9 3 -1 5 -23 4 -22 0 -30 -2 -17 -4z"/>
<path d="M5395 1683 c43 -5 75 -26 76 -52 0 -11 2 -12 6 -3 3 7 -5 24 -18 38
-17 19 -32 24 -63 22 l-41 -1 40 -4z"/>
<path d="M502 1640 c0 -14 2 -19 5 -12 2 6 2 18 0 25 -3 6 -5 1 -5 -13z"/>
<path d="M510 1601 c0 -6 4 -13 10 -16 6 -3 7 1 4 9 -7 18 -14 21 -14 7z"/>
<path d="M5473 1535 c0 -33 2 -45 4 -27 2 18 2 45 0 60 -2 15 -4 0 -4 -33z"/>
<path d="M4287 1559 c-26 -15 -3 -43 23 -29 55 29 54 -18 0 -54 -59 -39 -53
-56 20 -56 47 0 60 3 60 15 0 9 -10 15 -26 15 l-26 0 32 36 c28 33 30 38 17
57 -16 25 -71 33 -100 16z"/>
<path d="M4434 1516 c-20 -30 -33 -60 -29 -65 3 -6 22 -11 41 -11 21 0 33 -4
29 -10 -3 -6 4 -10 18 -10 30 0 59 46 38 60 -10 5 -12 20 -8 49 5 40 4 41 -24
41 -24 0 -35 -9 -65 -54z m46 -16 c0 -11 -7 -20 -15 -20 -13 0 -14 4 -5 20 6
11 13 20 15 20 3 0 5 -9 5 -20z"/>
<path d="M4633 1563 c-7 -2 -13 -11 -13 -19 0 -12 8 -13 35 -8 38 7 52 -14 15
-23 -11 -3 -20 -11 -20 -18 0 -7 9 -15 20 -18 36 -9 23 -29 -17 -25 -29 2 -38
-1 -38 -12 0 -19 80 -27 101 -9 16 13 19 59 4 59 -6 0 -3 11 5 24 14 22 14 25
0 40 -16 15 -65 20 -92 9z"/>
<path d="M4788 1538 c-56 -74 -58 -98 -7 -98 16 0 29 -4 29 -10 0 -5 10 -10
23 -10 30 0 59 46 38 59 -9 6 -12 23 -9 50 3 39 2 41 -23 41 -18 0 -34 -10
-51 -32z m32 -38 c0 -11 -7 -20 -15 -20 -18 0 -19 12 -3 28 16 16 18 15 18 -8z"/>
<path d="M4924 1562 c-28 -19 -45 -91 -26 -118 13 -20 47 -32 68 -24 49 19 69
85 38 128 -15 22 -57 30 -80 14z m52 -49 c8 -29 -6 -58 -27 -58 -18 0 -24 52
-8 71 17 21 28 17 35 -13z"/>
<path d="M3068 1533 c12 -2 30 -2 40 0 9 3 -1 5 -23 4 -22 0 -30 -2 -17 -4z"/>
<path d="M5287 1494 c-4 -4 -7 -25 -7 -46 0 -34 3 -38 25 -38 21 0 25 5 27 30
0 17 1 36 2 43 1 13 -36 22 -47 11z"/>
<path d="M4553 1444 c-4 -11 -2 -19 6 -22 9 -3 9 -7 0 -18 -7 -8 -7 -14 -1
-14 16 0 34 28 30 46 -4 24 -27 29 -35 8z"/>
<path d="M5115 1436 c0 -19 4 -22 20 -16 30 11 32 40 3 40 -18 0 -23 -6 -23
-24z"/>
<path d="M5460 1394 c0 -37 -5 -51 -29 -75 -16 -16 -26 -29 -21 -29 4 0 20 14
34 31 19 23 26 42 26 75 0 24 -2 44 -5 44 -3 0 -5 -21 -5 -46z"/>
<path d="M798 1183 c7 -3 16 -2 19 1 4 3 -2 6 -13 5 -11 0 -14 -3 -6 -6z"/>
<path d="M2288 1183 c7 -3 16 -2 19 1 4 3 -2 6 -13 5 -11 0 -14 -3 -6 -6z"/>
<path d="M116 1161 c-12 -13 -16 -30 -13 -53 l4 -33 1 37 c2 26 9 42 24 52 12
9 18 16 12 16 -6 0 -19 -9 -28 -19z"/>
<path d="M2547 1170 c13 -5 26 -23 32 -42 6 -21 10 -26 10 -13 1 28 -26 65
-47 64 -13 0 -11 -3 5 -9z"/>
<path d="M2573 1000 c0 -30 2 -43 4 -27 2 15 2 39 0 55 -2 15 -4 2 -4 -28z"/>
<path d="M93 975 c0 -22 2 -30 4 -17 2 12 2 30 0 40 -3 9 -5 -1 -4 -23z"/>
<path d="M936 956 c-12 -106 -12 -106 43 -106 55 0 72 13 73 58 1 42 -10 54
-46 50 -29 -3 -32 -1 -28 18 3 15 -2 23 -16 26 -17 5 -20 -1 -26 -46z m78 -35
c10 -16 -5 -41 -25 -41 -19 0 -27 29 -12 43 9 10 31 9 37 -2z"/>
<path d="M1387 1003 c-4 -3 -7 -16 -7 -27 0 -17 -6 -21 -32 -21 -43 0 -68 -40
-50 -79 10 -23 18 -26 60 -26 l49 0 7 46 c10 75 7 114 -7 114 -8 0 -17 -3 -20
-7z m-7 -93 c0 -24 -26 -38 -42 -22 -16 16 -2 42 22 42 13 0 20 -7 20 -20z"/>
<path d="M1773 930 c-17 -44 -27 -82 -23 -85 11 -7 19 9 54 94 30 75 30 71 14
71 -7 0 -27 -36 -45 -80z"/>
<path d="M1910 996 c0 -8 4 -17 9 -20 11 -7 33 18 24 27 -12 12 -33 7 -33 -7z"/>
<path d="M2106 947 c-9 -91 -8 -97 14 -97 11 0 20 7 20 15 0 8 4 15 9 15 5 0
11 -7 15 -15 3 -8 15 -15 26 -15 24 0 25 4 4 36 -16 24 -16 26 6 49 l23 25
-25 0 c-15 0 -32 -9 -42 -22 -16 -22 -16 -22 -11 18 5 35 3 42 -13 46 -17 5
-20 -2 -26 -55z"/>
<path d="M1840 941 c0 -33 -3 -66 -6 -75 -4 -11 0 -16 14 -16 22 0 32 33 32
106 0 37 -3 44 -20 44 -18 0 -20 -7 -20 -59z"/>
<path d="M440 951 c0 -5 7 -28 15 -51 20 -55 19 -57 -10 -64 -16 -4 -25 -13
-25 -26 0 -20 8 -20 484 -20 475 0 484 0 489 20 5 20 0 20 -439 20 -299 0
-444 3 -444 10 0 6 11 33 25 60 30 59 30 60 6 60 -12 0 -23 -12 -31 -32 l-13
-33 -10 33 c-6 21 -16 32 -28 32 -11 0 -19 -4 -19 -9z"/>
<path d="M583 948 c-21 -27 -23 -51 -8 -75 13 -19 23 -24 53 -21 47 4 73 42
54 82 -10 22 -18 26 -51 26 -21 0 -43 -6 -48 -12z m67 -38 c0 -24 -26 -38 -42
-22 -16 16 -2 42 22 42 13 0 20 -7 20 -20z"/>
<path d="M708 922 c-6 -67 -3 -71 58 -71 l54 1 0 54 c0 39 -4 54 -14 54 -16 0
-26 -21 -26 -57 0 -18 -5 -24 -17 -21 -14 3 -17 12 -15 41 3 31 1 37 -16 37
-16 0 -21 -8 -24 -38z"/>
<path d="M846 923 c-10 -62 -8 -73 14 -73 16 0 20 7 20 36 0 27 5 37 20 41 34
9 24 33 -14 33 -31 0 -34 -3 -40 -37z"/>
<path d="M1076 937 c-3 -12 -6 -37 -6 -54 0 -26 4 -33 20 -33 16 0 20 7 20 36
0 27 5 37 20 41 34 9 23 31 -14 31 -27 0 -35 -5 -40 -21z"/>
<path d="M1160 904 c0 -47 2 -54 20 -54 17 0 20 7 20 40 0 34 3 40 21 40 19 0
21 -5 17 -40 -3 -32 0 -40 13 -40 19 0 34 58 24 90 -5 16 -15 19 -61 19 l-54
-1 0 -54z"/>
<path d="M1516 945 c-19 -19 -21 -66 -4 -83 13 -13 70 -17 81 -5 12 11 -13 31
-32 26 -19 -5 -34 17 -23 35 4 5 21 12 37 14 42 4 38 22 -6 26 -24 2 -42 -3
-53 -13z"/>
<path d="M1633 948 c-21 -27 -23 -51 -8 -75 13 -19 23 -24 53 -21 47 4 73 42
54 82 -10 22 -18 26 -51 26 -21 0 -43 -6 -48 -12z m67 -38 c0 -24 -26 -38 -42
-22 -16 16 -2 42 22 42 13 0 20 -7 20 -20z"/>
<path d="M1900 904 c0 -47 3 -55 18 -52 13 2 18 15 20 56 3 47 1 52 -17 52
-19 0 -21 -6 -21 -56z"/>
<path d="M1966 937 c-3 -12 -6 -37 -6 -54 0 -26 4 -33 20 -33 17 0 20 7 20 40
0 33 3 40 20 40 17 0 20 -7 20 -41 0 -33 3 -40 18 -37 13 3 17 14 17 53 l0 50
-52 2 c-45 1 -52 -1 -57 -20z"/>
<path d="M2563 850 c0 -30 2 -43 4 -27 2 15 2 39 0 55 -2 15 -4 2 -4 -28z"/>
<path d="M83 850 c0 -25 2 -35 4 -22 2 12 2 32 0 45 -2 12 -4 2 -4 -23z"/>
<path d="M1436 875 c-3 -9 1 -18 10 -22 19 -7 39 11 30 26 -10 16 -33 13 -40
-4z"/>
<path d="M1827 818 c-3 -12 -4 -25 -1 -30 3 -4 93 -8 200 -8 l194 0 0 30 0 30
-194 0 c-190 0 -194 0 -199 -22z"/>
<path d="M5333 773 c-58 -104 -74 -141 -61 -149 6 -4 17 1 24 11 12 17 14 16
25 -8 6 -14 20 -27 30 -30 25 -7 42 -79 36 -149 -5 -54 -4 -57 20 -63 14 -3
29 -2 33 2 18 21 129 278 123 283 -5 4 -45 33 -90 64 -54 37 -83 64 -83 76 0
41 -21 27 -57 -37z"/>
<path d="M73 715 c0 -27 2 -38 4 -22 2 15 2 37 0 50 -2 12 -4 0 -4 -28z"/>
<path d="M2552 715 c0 -16 2 -22 5 -12 2 9 2 23 0 30 -3 6 -5 -1 -5 -18z"/>
<path d="M2551 664 c0 -11 3 -14 6 -6 3 7 2 16 -1 19 -3 4 -6 -2 -5 -13z"/>
<path d="M71 648 c-1 -9 9 -24 21 -32 19 -14 61 -16 288 -14 l265 2 -275 6
c-151 3 -276 7 -278 8 -1 1 -7 12 -12 25 -6 16 -9 17 -9 5z"/>
<path d="M2521 620 c-13 -11 -19 -20 -13 -20 10 0 42 27 42 36 0 7 -4 5 -29
-16z"/>
<path d="M878 603 c128 -2 335 -2 460 0 125 1 20 2 -233 2 -253 0 -355 -1
-227 -2z"/>
<path d="M1618 603 c7 -3 16 -2 19 1 4 3 -2 6 -13 5 -11 0 -14 -3 -6 -6z"/>
<path d="M3350 516 c0 -9 6 -16 14 -16 24 0 26 -14 6 -58 -21 -47 -88 -96
-145 -106 -29 -6 -34 -10 -31 -29 3 -12 5 -25 5 -28 2 -10 205 -28 316 -27 84
1 97 2 54 7 l-55 6 20 108 c12 67 24 107 32 107 11 0 29 29 22 36 -2 1 -56 6
-120 9 -106 7 -118 6 -118 -9z"/>
<path d="M2263 253 c9 -2 25 -2 35 0 9 3 1 5 -18 5 -19 0 -27 -2 -17 -5z"/>
<path d="M2328 253 c7 -3 16 -2 19 1 4 3 -2 6 -13 5 -11 0 -14 -3 -6 -6z"/>
<path d="M2908 253 c7 -3 16 -2 19 1 4 3 -2 6 -13 5 -11 0 -14 -3 -6 -6z"/>
<path d="M3638 253 c6 -2 18 -2 25 0 6 3 1 5 -13 5 -14 0 -19 -2 -12 -5z"/>
<path d="M3688 253 c7 -3 16 -2 19 1 4 3 -2 6 -13 5 -11 0 -14 -3 -6 -6z"/>
<path d="M3833 253 c9 -2 23 -2 30 0 6 3 -1 5 -18 5 -16 0 -22 -2 -12 -5z"/>
<path d="M3933 253 c15 -2 37 -2 50 0 12 2 0 4 -28 4 -27 0 -38 -2 -22 -4z"/>
<path d="M2438 243 c7 -3 16 -2 19 1 4 3 -2 6 -13 5 -11 0 -14 -3 -6 -6z"/>
<path d="M2508 243 c23 -2 59 -2 80 0 20 2 1 4 -43 4 -44 0 -61 -2 -37 -4z"/>
<path d="M3128 243 c12 -2 32 -2 45 0 12 2 2 4 -23 4 -25 0 -35 -2 -22 -4z"/>
</g>
</svg>
